<svg xmlns="http://www.w3.org/2000/svg" viewBox="0 0 64 64" role="img" aria-labelledby="title desc">
  <title id="title">Fluxeando</title>
  <desc id="desc">Marca espiral de Fluxeando sobre fondo terracota.</desc>
  <rect width="64" height="64" rx="14" fill="#B24E2E"/>
  <path d="M31.8 26.1c6.1 0 11.1 4.9 11.1 11s-5 11-11.1 11-11.1-4.9-11.1-11 5-11 11.1-11c4.1 0 7.4 3.3 7.4 7.3s-3.3 7.3-7.4 7.3c-2.4 0-4.3-1.9-4.3-4.3 0-2.3 1.9-4.2 4.3-4.2" fill="none" stroke="#F4EAD9" stroke-width="3.8" stroke-linecap="round" stroke-linejoin="round"/>
  <path d="M21.7 49.2c-5.5-3.7-8.9-9.9-8.9-16.7 0-6.4 3-12.4 8-16.2" fill="none" stroke="#F4EAD9" stroke-width="3.8" stroke-linecap="round"/>
  <circle cx="31.8" cy="36.4" r="2.25" fill="#F4EAD9"/>
</svg>
